<svg width="14" height="12" viewBox="0 0 14 12" fill="none" xmlns="http://www.w3.org/2000/svg">
<path d="M8.56888 0.165441C8.33583 -0.0628618 7.96629 -0.0538616 7.74433 0.186142C7.52208 0.426145 7.53142 0.80595 7.76446 1.03455L12.2392 5.39991H0.583333C0.261333 5.39991 0 5.66872 0 5.99992C0 6.33112 0.261333 6.59993 0.583333 6.59993H12.2205L7.76446 10.9656C7.53112 11.1942 7.52208 11.574 7.74433 11.814C7.85896 11.9376 8.01267 12 8.16667 12C8.31133 12 8.456 11.9451 8.56888 11.8344L13.6582 6.84833C13.8787 6.62183 14 6.32062 14 5.99992C14 5.67922 13.8787 5.37801 13.648 5.14131L8.56888 0.165441Z" fill="black"/>
</svg>
