<svg id="Capa_1" data-name="Capa 1" xmlns="http://www.w3.org/2000/svg" xmlns:xlink="http://www.w3.org/1999/xlink" viewBox="0 0 500 500"><defs><style>.cls-1{fill:none;}.cls-2{fill:#fff;}.cls-3{clip-path:url(#clip-path);}.cls-4{fill:url(#Degradado_sin_nombre);}.cls-5{fill:url(#Degradado_sin_nombre_2);}.cls-6{fill:url(#Degradado_sin_nombre_3);}</style><clipPath id="clip-path"><rect class="cls-1" x="141.93" y="141.93" width="212.89" height="212.89"/></clipPath><linearGradient id="Degradado_sin_nombre" x1="159.8" y1="165.04" x2="336.96" y2="342.21" gradientTransform="matrix(1, 0, 0, -1, 0, 502)" gradientUnits="userSpaceOnUse"><stop offset="0" stop-color="#ffd600"/><stop offset="0.5" stop-color="#ff0100"/><stop offset="1" stop-color="#d800b9"/></linearGradient><linearGradient id="Degradado_sin_nombre_2" x1="209.72" y1="214.97" x2="287.02" y2="292.27" gradientTransform="matrix(1, 0, 0, -1, 0, 502)" gradientUnits="userSpaceOnUse"><stop offset="0" stop-color="#ff6400"/><stop offset="0.5" stop-color="#ff0100"/><stop offset="1" stop-color="#fd0056"/></linearGradient><linearGradient id="Degradado_sin_nombre_3" x1="296.17" y1="301.41" x2="314.24" y2="319.48" gradientTransform="matrix(1, 0, 0, -1, 0, 502)" gradientUnits="userSpaceOnUse"><stop offset="0" stop-color="#f30072"/><stop offset="1" stop-color="#e50097"/></linearGradient></defs><circle class="cls-2" cx="250" cy="250" r="250"/><g class="cls-3"><path class="cls-4" d="M354.18,204.49c-.51-11.33-2.31-19.07-4.95-25.84a54.45,54.45,0,0,0-31.13-31.14c-6.77-2.62-14.5-4.42-25.84-4.94s-15-.64-43.88-.64-32.54.12-43.89.64-19.07,2.32-25.84,5a54.53,54.53,0,0,0-31.14,31.13c-2.62,6.77-4.42,14.51-4.94,25.84s-.64,15-.64,43.89.12,32.53.64,43.88,2.32,19.07,5,25.84a54.47,54.47,0,0,0,31.13,31.13c6.77,2.64,14.51,4.43,25.84,4.95s15,.64,43.89.64,32.53-.12,43.89-.64,19.06-2.31,25.83-4.95a54.39,54.39,0,0,0,31.13-31.13c2.64-6.77,4.44-14.51,4.95-25.84s.64-15,.64-43.88-.12-32.54-.64-43.89ZM335,291.39c-.47,10.38-2.2,16-3.66,19.77a35.26,35.26,0,0,1-20.2,20.2c-3.76,1.46-9.39,3.19-19.77,3.66-11.22.52-14.59.62-43,.62s-31.79-.1-43-.62c-10.38-.47-16-2.2-19.76-3.66a35.27,35.27,0,0,1-20.21-20.2c-1.45-3.75-3.19-9.39-3.66-19.77-.51-11.22-.62-14.59-.62-43s.11-31.79.62-43c.47-10.38,2.21-16,3.66-19.76a35.27,35.27,0,0,1,20.21-20.2c3.75-1.46,9.38-3.2,19.76-3.67,11.23-.51,14.59-.62,43-.62h0c28.42,0,31.79.11,43,.62,10.38.47,16,2.21,19.77,3.67a35.3,35.3,0,0,1,20.2,20.2c1.46,3.75,3.19,9.38,3.66,19.76.51,11.23.62,14.59.62,43S335.54,280.17,335,291.39Z"/><path class="cls-5" d="M248.37,193.71A54.67,54.67,0,1,0,303,248.38a54.67,54.67,0,0,0-54.66-54.67Zm0,90.15a35.48,35.48,0,1,1,35.48-35.48,35.49,35.49,0,0,1-35.48,35.48Z"/><path class="cls-6" d="M318,191.56a12.78,12.78,0,1,1-12.78-12.78A12.78,12.78,0,0,1,318,191.56Z"/></g></svg>