<svg width="475" height="135" viewBox="0 0 475 135" fill="none" xmlns="http://www.w3.org/2000/svg">
<g clip-path="url(#clip0)">
<path d="M26.2798 12.6122H16.339L18.8729 0.977539H52.0088L49.4749 12.6122H39.4367L27.1569 71.0787H14L26.2798 12.6122Z" fill="white"/>
<path d="M56.5891 1.07568H69.8434L64.0934 28.3536H72.4748L78.2249 1.07568H91.5767L76.763 71.0791H63.4112L69.9409 39.8904H61.5595L55.0297 71.0791H41.7754L56.5891 1.07568Z" fill="white"/>
<path d="M119.255 39.8904H104.831L100.835 59.64H118.28L114.382 71.1769H85.1445L99.9582 1.07568H128.319L125.882 12.6126H110.679L107.268 28.3536H121.691L119.255 39.8904Z" fill="white"/>
<path d="M171.298 48.8851L170.616 51.916C168.277 61.8885 165.938 72.1544 150.637 72.1544C138.26 72.1544 133.679 65.3105 136.603 51.7204L143.328 19.9451C146.252 6.64837 150.735 0 162.722 0C179.095 0 179.095 11.6346 177.048 19.8473L176.464 22.5849H163.307L164.379 17.5009C165.353 13.0034 164.866 10.8525 161.942 10.8525C159.311 10.8525 158.336 12.8079 157.264 17.8919L149.663 53.9691C148.688 58.5643 148.688 61.3997 151.807 61.3997C154.536 61.3997 155.705 59.2487 156.875 53.9691L157.947 48.8851H171.298Z" fill="white"/>
<path d="M189.815 53.969L184.552 71.0787H170.713L194.883 0.977539H215.251L209.989 71.0787H196.734L198.294 53.969H189.815ZM199.561 42.4321C200.438 34.1216 201.802 19.4561 202.387 12.8077H201.9C200.535 18.0873 196.247 33.3395 193.518 42.4321H199.561Z" fill="white"/>
<path d="M230.066 1.07568H243.32L230.943 59.4445H247.511L244.1 71.0791H215.35L230.066 1.07568Z" fill="white"/>
<path d="M277.431 1.07568L262.617 71.1769H249.46L264.274 1.07568H277.431Z" fill="white"/>
<path d="M299.553 50.9383L298.871 54.2624C297.993 59.0532 298.578 61.5952 301.892 61.5952C304.718 61.5952 306.082 59.4443 307.057 54.6535C308.129 48.8851 307.252 45.3654 301.21 38.6192C294.095 30.5043 291.269 25.9091 293.315 15.2521C295.459 4.88851 301.015 0 310.663 0C325.964 0 327.036 10.6569 325.282 19.554L324.989 21.0206H312.32L312.905 18.4786C313.782 13.8834 313.684 10.6569 310.468 10.6569C308.324 10.6569 306.862 11.928 306.277 15.5455C305.4 20.434 306.18 22.6827 310.955 28.3533C320.311 39.3036 322.358 44.8765 320.116 55.6312C317.777 67.0703 311.93 72.1544 300.625 72.1544C287.565 72.1544 283.472 64.5283 286.006 52.6003L286.396 50.9383H299.553V50.9383Z" fill="white"/>
<path d="M337.952 1.07568H351.207L345.457 28.3536H353.838L359.588 1.07568H372.94L358.126 71.1769H344.774L351.304 39.9882H342.923L336.393 71.0791H323.139L337.952 1.07568Z" fill="white"/>
<path d="M411.728 20.9227L404.906 53.2846C402.177 66.1903 397.499 72.252 384.537 72.252C371.77 72.252 367.19 64.7237 369.919 51.7203L377.033 17.5985C379.664 4.79062 386.389 0.0976576 396.525 0.0976576C408.902 -0.000112488 414.652 7.23488 411.728 20.9227ZM390.482 17.3052L382.783 54.1645C382.003 57.8798 382.198 61.3018 385.999 61.3018C389.215 61.3018 390.482 58.5642 391.36 54.4579L399.059 17.5007C399.936 13.4922 399.254 10.8524 395.648 10.8524C393.016 10.8524 391.36 12.8078 390.482 17.3052Z" fill="white"/>
<path d="M412.897 71.0787L420.012 0.977539H433.364C431.61 13.4921 427.614 37.9347 425.567 49.0805H426.054C430.343 35.6859 436.677 16.1319 441.258 0.977539H452.368C450.809 14.6654 448.177 36.2726 446.521 49.6671H447.105C450.127 36.7614 456.461 12.5144 459.775 0.977539H473.127L449.444 71.0787H435.703C436.97 59.4441 437.944 46.6362 439.796 32.1662H439.309C435.021 46.4407 430.732 58.4664 426.639 71.0787H412.897Z" fill="white"/>
<rect y="87" width="184" height="48.4683" rx="24.2341" fill="#80FFDB"/>
<path d="M49.9941 97.3218H54.0332C58.1619 97.3218 59.1492 100.104 58.3414 104.053L57.9824 105.938C57.1746 110.067 55.6488 112.311 50.7122 112.311H48.7375L45.9551 125.595H43.9805L49.9941 97.3218ZM49.0966 110.606H50.9814C54.3922 110.606 55.2897 109.08 55.918 105.849L56.2771 104.053C56.8156 101.361 56.7258 99.1169 53.5844 99.1169H51.6097L49.0966 110.606Z" fill="black"/>
<path d="M72.1636 104.233L69.0222 118.774C68.0349 123.261 66.5988 125.954 62.6495 125.954C58.3412 125.954 57.4436 122.902 58.3412 118.684L61.4827 103.784C62.3802 99.6555 63.9958 96.873 67.8554 96.873C71.9841 96.9628 73.0612 100.194 72.1636 104.233ZM63.5471 103.784L60.3158 118.774C59.508 122.543 60.4056 124.159 62.829 124.159C65.0729 124.159 66.15 122.543 66.9578 118.863L70.189 104.054C70.9071 100.463 70.0095 98.7579 67.5861 98.7579C65.3422 98.7579 64.1754 100.643 63.5471 103.784Z" fill="black"/>
<path d="M77.4599 97.3218H81.3194C86.7047 97.3218 87.2433 101.54 85.9867 107.105L84.0121 116.171C82.576 123.172 81.2296 125.595 75.4852 125.595H71.3564L77.4599 97.3218ZM73.8696 123.8H75.6647C79.255 123.8 80.6911 122.723 81.9477 116.619L84.1018 106.746C85.2686 101.271 84.5506 99.1169 80.7808 99.1169H79.0755L73.8696 123.8Z" fill="black"/>
<path d="M97.4745 118.325L97.3847 118.863C96.4872 122.633 95.4101 125.954 91.1915 125.954C87.0628 125.954 86.0754 123.172 87.0628 118.504L90.1145 104.054C91.2813 98.6683 93.0764 96.9629 96.1281 96.9629C100.706 96.9629 101.154 100.553 100.347 104.054L100.167 104.682H98.1925L98.2823 104.143C98.9106 101.181 99.0003 98.758 95.9486 98.758C93.7047 98.758 92.8072 100.733 92.1789 103.874L89.0374 118.415C88.1398 122.633 88.9476 124.159 91.3711 124.159C93.7047 124.159 94.5125 122.095 95.2306 119.043L95.4101 118.325H97.4745V118.325Z" fill="black"/>
<path d="M104.207 115.453L100.527 125.595H98.4629C101.335 118.055 105.823 105.759 109.054 97.3218H112.016L110.759 125.595H108.785L109.323 115.453H104.207V115.453ZM109.323 113.657C109.682 107.374 109.862 101.451 110.131 99.2067H110.041C109.593 101.002 107.079 107.823 104.925 113.657H109.323Z" fill="black"/>
<path d="M116.234 118.415L116.144 119.133C115.516 122.633 116.324 124.159 118.747 124.159C120.811 124.159 121.978 122.364 122.517 119.402C123.145 116.081 122.607 114.017 120.273 111.324C117.67 108.362 116.683 106.298 117.49 102.438C118.029 99.117 119.465 96.9629 122.786 96.9629C126.735 96.9629 127.543 100.015 126.825 103.605L126.646 104.413H124.761L124.94 103.515C125.299 101.181 125.299 98.758 122.607 98.758C120.542 98.758 119.734 100.463 119.286 102.797C118.747 105.579 119.286 107.375 121.44 109.798C124.312 113.119 125.21 115.632 124.402 119.761C123.684 123.261 122.158 126.044 118.388 126.044C114.17 126.044 113.182 123.172 114.08 119.133L114.17 118.594H116.234V118.415Z" fill="black"/>
<path d="M133.288 99.1169H128.801L129.16 97.3218H140.02L139.661 99.1169H135.263L129.608 125.595H127.634L133.288 99.1169Z" fill="black"/>
</g>
<defs>
<clipPath id="clip0">
<rect width="475" height="135" fill="white"/>
</clipPath>
</defs>
</svg>
