<svg width="500" height="500" viewBox="0 0 500 500" fill="none" xmlns="http://www.w3.org/2000/svg">
<circle cx="250" cy="250" r="250" fill="white"/>
<path d="M138.403 366.651C137.069 366.651 135.771 366.126 134.808 365.157C133.54 363.879 133.05 362.024 133.527 360.29L148.972 304.134C139.356 286.821 134.286 267.236 134.294 247.355C134.321 182.701 187.165 130.102 252.096 130.102C283.59 130.115 313.182 142.329 335.425 164.491C357.664 186.655 369.906 216.117 369.897 247.449C369.868 312.105 317.023 364.708 252.096 364.708C252.096 364.708 252.047 364.708 252.045 364.708C233.08 364.7 214.278 360.098 197.537 351.381L139.684 366.487C139.26 366.597 138.829 366.651 138.403 366.651V366.651Z" fill="#ECEFF1"/>
<path d="M140.74 359.259L156.404 302.317C146.742 285.651 141.66 266.746 141.667 247.378C141.692 186.788 191.223 137.494 252.087 137.494C281.622 137.507 309.345 148.95 330.193 169.721C351.039 190.492 362.516 218.102 362.505 247.466C362.478 308.054 312.94 357.356 252.087 357.356C252.083 357.356 252.089 357.356 252.087 357.356H252.039C233.559 357.349 215.403 352.735 199.275 343.979L140.74 359.259ZM201.986 324.086L205.339 326.063C219.427 334.387 235.579 338.788 252.051 338.797H252.087C302.669 338.797 343.839 297.821 343.86 247.459C343.869 223.054 334.333 200.104 317.005 182.841C299.676 165.577 276.636 156.065 252.121 156.054C201.498 156.054 160.329 197.025 160.31 247.385C160.303 264.643 165.153 281.448 174.341 295.992L176.524 299.449L167.251 333.151L201.986 324.086Z" fill="#ECEFF1"/>
<path d="M140.74 359.259L156.406 302.314C146.74 285.649 141.66 266.742 141.665 247.377C141.689 186.788 191.223 137.494 252.084 137.494C281.624 137.507 309.349 148.951 330.192 169.722C351.042 190.493 362.516 218.102 362.505 247.463C362.479 308.054 312.944 357.353 252.09 357.353C252.084 357.353 252.092 357.353 252.09 357.353H252.04C233.561 357.346 215.402 352.73 199.275 343.98L140.74 359.259Z" fill="#64B161"/>
<path d="M139.088 361.618L155.013 303.464C145.19 286.444 140.023 267.137 140.03 247.357C140.055 185.478 190.411 135.135 252.288 135.135C282.315 135.148 310.499 146.835 331.694 168.048C352.887 189.261 364.554 217.458 364.543 247.447C364.516 309.324 314.154 359.674 252.288 359.674C252.284 359.674 252.289 359.674 252.288 359.674H252.239C233.452 359.667 214.993 354.955 198.597 346.012L139.088 361.618ZM201.353 325.696L204.762 327.716C219.084 336.216 235.505 340.712 252.252 340.721H252.288C303.711 340.721 345.567 298.873 345.588 247.44C345.597 222.515 335.902 199.077 318.286 181.446C300.669 163.816 277.245 154.101 252.322 154.09C200.856 154.09 159.003 195.933 158.983 247.364C158.976 264.989 163.906 282.152 173.248 297.005L175.468 300.535L166.04 334.955L201.353 325.696Z" fill="#ECEFF1"/>
<path fill-rule="evenodd" clip-rule="evenodd" d="M224.231 200.441C222.13 195.771 219.918 195.677 217.918 195.596C216.283 195.525 214.411 195.529 212.543 195.529C210.674 195.529 207.635 196.233 205.065 199.039C202.493 201.845 195.245 208.631 195.245 222.432C195.245 236.234 205.297 249.57 206.7 251.443C208.102 253.314 226.104 282.54 254.613 293.784C278.308 303.128 283.128 301.27 288.272 300.802C293.415 300.335 304.866 294.016 307.203 287.467C309.542 280.918 309.542 275.305 308.84 274.13C308.138 272.962 306.268 272.26 303.464 270.858C300.659 269.456 286.869 262.668 284.298 261.733C281.726 260.797 279.856 260.331 277.986 263.139C276.115 265.944 270.744 272.26 269.107 274.13C267.47 276.005 265.833 276.24 263.029 274.836C260.224 273.43 251.19 270.47 240.473 260.914C232.136 253.48 226.505 244.298 224.868 241.49C223.233 238.685 224.841 237.299 226.101 235.767C228.369 233.008 232.175 228.046 233.11 226.177C234.045 224.303 233.578 222.667 232.877 221.262C232.175 219.86 226.723 205.989 224.231 200.441V200.441Z" fill="#ECEFF1"/>
</svg>
