<svg width="500" height="500" viewBox="0 0 500 500" fill="none" xmlns="http://www.w3.org/2000/svg">
<circle cx="250" cy="250" r="250" fill="white"/>
<path d="M368.157 193.537C365.216 182.607 356.598 173.992 345.67 171.048C325.704 165.584 245.841 165.584 245.841 165.584C245.841 165.584 165.98 165.584 146.015 170.84C135.297 173.781 126.469 182.609 123.528 193.537C118.274 213.501 118.274 254.904 118.274 254.904C118.274 254.904 118.274 296.515 123.528 316.271C126.471 327.199 135.087 335.816 146.017 338.759C166.191 344.223 245.843 344.223 245.843 344.223C245.843 344.223 325.704 344.223 345.67 338.967C356.6 336.026 365.216 327.409 368.159 316.481C373.412 296.515 373.412 255.114 373.412 255.114C373.412 255.114 373.623 213.501 368.157 193.537Z" fill="#FF0000"/>
<path d="M220.413 293.154L286.824 254.904L220.413 216.654V293.154Z" fill="white"/>
</svg>
